<?xml version="1.0" standalone="no"?>
<!DOCTYPE svg PUBLIC "-//W3C//DTD SVG 20010904//EN"
 "http://www.w3.org/TR/2001/REC-SVG-20010904/DTD/svg10.dtd">
<svg version="1.0" xmlns="http://www.w3.org/2000/svg"
 width="512.000000pt" height="512.000000pt" viewBox="0 0 512.000000 512.000000"
 preserveAspectRatio="xMidYMid meet">
<metadata>
Created by potrace 1.11, written by Peter Selinger 2001-2013
</metadata>
<g transform="translate(0.000000,512.000000) scale(0.100000,-0.100000)"
fill="#000000" stroke="none">
<path d="M216 5100 c-101 -40 -158 -97 -196 -199 -20 -50 -20 -94 -20 -2332 0
-1687 3 -2292 12 -2327 23 -95 93 -174 193 -219 38 -17 149 -18 2355 -18
l2315 0 56 26 c71 33 125 87 158 158 l26 56 0 2315 0 2315 -26 56 c-33 71 -87
125 -158 158 l-56 26 -2305 2 c-2247 2 -2306 2 -2354 -17z m2920 -405 c167
-33 336 -91 499 -169 160 -77 238 -124 382 -232 102 -77 334 -287 333 -303 -1
-3 -26 -22 -57 -41 -67 -42 -194 -167 -246 -241 -199 -287 -285 -437 -427
-750 -33 -72 -78 -159 -101 -192 l-42 -62 28 -82 c16 -46 30 -83 32 -83 2 0
17 7 32 14 63 33 120 123 229 360 35 77 66 142 67 144 1 1 20 -16 43 -37 31
-30 53 -41 87 -46 51 -8 106 0 148 22 16 8 32 12 35 8 12 -11 -40 -212 -82
-317 -96 -237 -266 -461 -534 -702 l-53 -48 59 -62 c33 -34 74 -84 91 -111 30
-47 75 -154 68 -161 -2 -2 -51 10 -110 26 -248 69 -569 130 -912 172 -151 19
-232 22 -495 23 -336 0 -393 -5 -531 -51 -91 -30 -162 -77 -200 -134 -84 -125
-255 -702 -325 -1093 l-28 -157 -415 2 -415 3 -49 555 c-40 462 -47 578 -42
695 17 424 117 922 267 1324 247 664 627 1154 1121 1449 453 270 1048 377
1543 277z m1442 -865 c63 -49 148 -154 212 -260 89 -147 139 -313 126 -413 -7
-49 -24 -97 -36 -97 -18 0 -119 75 -241 181 -155 132 -198 159 -262 159 -59 0
-98 -28 -217 -151 -52 -55 -103 -99 -112 -99 -15 0 -18 9 -18 51 0 69 16 130
60 225 52 113 111 196 201 284 69 68 196 158 226 159 6 1 34 -17 61 -39z
m-2475 -2312 c14 -321 101 -680 246 -1020 22 -53 41 -102 41 -108 0 -7 -75
-10 -242 -8 l-242 3 -28 55 c-105 208 -183 501 -242 905 -28 199 -28 202 61
242 66 30 229 61 329 62 l71 1 6 -132z"/>
<path d="M2585 4563 c-110 -10 -360 -58 -439 -84 -128 -43 -200 -84 -276 -159
-76 -76 -128 -168 -161 -285 -28 -102 -37 -372 -19 -539 64 -587 414 -966
1116 -1209 72 -25 174 -57 225 -71 l94 -25 -75 66 c-41 36 -136 127 -210 202
-555 557 -708 1021 -390 1181 31 16 85 36 120 45 89 23 125 8 220 -93 244
-256 285 -290 392 -324 113 -34 271 -20 393 36 l50 23 -75 22 c-107 32 -245
103 -319 164 -75 61 -140 152 -167 234 -27 86 -25 217 6 313 66 204 187 284
432 284 64 1 116 2 115 2 -9 8 -331 127 -397 147 -207 62 -438 88 -635 70z"/>
<path d="M3442 4203 c-61 -21 -154 -111 -183 -175 -32 -74 -32 -192 0 -266 30
-67 122 -154 187 -176 60 -20 167 -21 225 -1 72 25 138 82 178 155 34 61 36
71 36 155 0 85 -2 94 -36 155 -40 73 -106 130 -178 155 -56 19 -173 18 -229
-2z m214 -194 c36 -33 54 -72 54 -114 0 -42 -18 -81 -54 -114 -39 -37 -128
-41 -176 -9 -40 27 -70 79 -70 123 0 44 30 96 70 123 48 32 137 28 176 -9z"/>
<path d="M1335 3939 c-519 -532 -839 -1307 -916 -2214 -15 -180 -15 -645 -1
-800 7 -66 19 -168 28 -227 l16 -108 253 0 254 0 10 53 c6 28 24 126 41 217
69 362 141 604 245 816 87 179 140 224 331 279 190 55 272 60 934 57 389 -1
610 1 620 8 12 7 8 10 -15 10 -53 1 -336 67 -488 114 -583 182 -930 488 -1075
946 -61 192 -80 335 -95 704 l-12 278 -130 -133z"/>
</g>
</svg>
