<?xml version="1.0" standalone="no"?>
<!DOCTYPE svg PUBLIC "-//W3C//DTD SVG 20010904//EN"
 "http://www.w3.org/TR/2001/REC-SVG-20010904/DTD/svg10.dtd">
<svg version="1.0" xmlns="http://www.w3.org/2000/svg"
 width="512.000000pt" height="512.000000pt" viewBox="0 0 512.000000 512.000000"
 preserveAspectRatio="xMidYMid meet">
<metadata>
Created by potrace 1.11, written by Peter Selinger 2001-2013
</metadata>
<g transform="translate(0.000000,512.000000) scale(0.100000,-0.100000)"
fill="#000000" stroke="none">
<path d="M207 5096 c-89 -37 -135 -81 -176 -166 l-26 -55 -2 -2295 c-2 -1701
0 -2307 9 -2340 23 -93 104 -183 190 -216 52 -19 97 -19 2363 -19 l2310 0 56
26 c71 33 125 87 158 158 l26 56 0 2315 0 2315 -26 56 c-33 69 -88 124 -159
158 l-55 26 -2305 2 -2305 3 -58 -24z"/>
</g>
</svg>
